<svg xmlns="http://www.w3.org/2000/svg" viewBox="0 0 16 16" width="16" height="16"><path d="M2 0C.892 0 0 .892 0 2v12c0 1.108.892 2 2 2h12c1.108 0 2-.892 2-2V2c0-1.108-.892-2-2-2zm4.427 1.333a5.106 5.106 0 015.093 5.094 5.053 5.053 0 01-.948 2.944l4.095 4.095-1.2 1.2-4.096-4.094a5.053 5.053 0 01-2.944.948 5.106 5.106 0 01-5.094-5.093 5.107 5.107 0 015.094-5.094zm0 1.274A3.188 3.188 0 003.243 5.79c0 1.25.777 2.339 1.52 3.123a9.707 9.707 0 001.487 1.28.319.319 0 00.353 0s.744-.496 1.487-1.28c.743-.784 1.52-1.872 1.52-3.123a3.188 3.188 0 00-3.183-3.183zm-.022 1.91a1.273 1.273 0 01.022 0A1.273 1.273 0 017.701 5.79a1.273 1.273 0 01-1.274 1.274A1.273 1.273 0 015.154 5.79a1.273 1.273 0 011.25-1.273z"/></svg>
